# Blender v3.3.14 OBJ File: 'PooreRobert_one.blend'
# www.blender.org
mtllib Mushroom.mtl
o Mushroom
v -0.000150 -0.013102 -0.076591
v 0.000150 0.140080 -0.094894
v 0.059731 -0.013220 -0.047754
v 0.075086 0.139933 -0.058806
v 0.074521 -0.013249 0.017043
v 0.093594 0.139897 0.022281
v 0.033081 -0.013168 0.069007
v 0.041737 0.139999 0.087309
v -0.033382 -0.013037 0.069006
v -0.041436 0.140162 0.087309
v -0.074821 -0.012956 0.017043
v -0.093293 0.140264 0.022281
v -0.060032 -0.012985 -0.047754
v -0.074786 0.140227 -0.058806
v 0.052145 0.174619 -0.041914
v 0.000218 0.174721 -0.066920
v 0.064969 0.174594 0.014275
v 0.029035 0.174665 0.059335
v -0.028598 0.174778 0.059335
v -0.064533 0.174848 0.014275
v -0.051708 0.174823 -0.041914
v 0.045942 0.384893 -0.037057
v 0.000631 0.384982 -0.058877
v 0.057132 0.384871 0.011973
v 0.025777 0.384933 0.051292
v -0.024514 0.385032 0.051292
v -0.055870 0.385093 0.011973
v -0.044679 0.385071 -0.037057
v 0.072227 0.384842 -0.056354
v 0.000631 0.384982 -0.090832
v 0.089910 0.384807 0.021119
v 0.040364 0.384904 0.083248
v -0.039101 0.385060 0.083248
v -0.088647 0.385157 0.021119
v -0.070964 0.385123 -0.056354
v 0.046526 0.473970 -0.037357
v 0.000806 0.474059 -0.059375
v 0.057818 0.473947 0.012116
v 0.026179 0.474010 0.051790
v -0.024566 0.474109 0.051790
v -0.056205 0.474171 0.012116
v -0.044914 0.474149 -0.037357
v 0.283684 0.433914 -0.211522
v 0.000729 0.434470 -0.347787
v 0.353569 0.433777 0.094662
v 0.157757 0.434161 0.340202
v -0.156300 0.434778 0.340202
v -0.352112 0.435162 0.094662
v -0.282227 0.435025 -0.211522
v 0.264072 0.521908 -0.196992
v 0.000908 0.522844 -0.323726
v 0.329068 0.521677 0.087775
v 0.146953 0.522324 0.316141
v -0.145138 0.523363 0.316141
v -0.327253 0.524010 0.087775
v -0.262257 0.523779 -0.196992
v 0.172376 0.623763 -0.129594
v 0.001018 0.624373 -0.212116
v 0.214699 0.623613 0.055832
v 0.096115 0.624034 0.204531
v -0.094079 0.624711 0.204531
v -0.212663 0.625132 0.055832
v -0.170341 0.624982 -0.129594
v 0.092459 0.662726 -0.070893
v 0.001060 0.663050 -0.114908
v 0.115033 0.662645 0.028010
v 0.051782 0.662870 0.107323
v -0.049663 0.663231 0.107323
v -0.112913 0.663456 0.028010
v -0.090340 0.663375 -0.070893
v 0.001086 0.687557 0.001996
vn 0.4312 -0.1079 -0.8958
vn 0.9687 -0.1131 -0.2211
vn 0.7763 -0.1179 0.6193
vn -0.0002 -0.1186 0.9929
vn -0.7768 -0.1148 0.6193
vn -0.7767 -0.1148 0.6193
vn 0.6142 0.6195 0.4888
vn -0.9691 -0.1093 -0.2211
vn -0.4316 -0.1062 -0.8958
vn -0.0020 -1.0000 0.0000
vn -0.9742 0.0377 -0.2224
vn -0.7765 0.6046 -0.1775
vn 0.0012 0.6283 0.7780
vn -0.3497 0.5890 -0.7285
vn 0.7788 0.6016 -0.1775
vn -0.6118 0.6219 0.4888
vn 0.3520 0.5876 -0.7285
vn 0.3520 0.5876 -0.7286
vn 0.0001 0.0382 0.9993
vn 0.9744 0.0339 -0.2224
vn -0.4336 0.0353 -0.9004
vn -0.7812 0.0390 0.6231
vn 0.7814 0.0359 0.6230
vn 0.7814 0.0359 0.6231
vn 0.4337 0.0336 -0.9004
vn 0.0007 0.3330 0.9429
vn -0.0019 -1.0000 -0.0000
vn -0.0673 -0.9885 0.1357
vn 0.9263 0.3121 -0.2113
vn -0.4129 0.3040 -0.8586
vn -0.7382 0.3286 0.5892
vn 0.7394 0.3257 0.5892
vn 0.4140 0.3024 -0.8586
vn 0.4141 0.3024 -0.8586
vn -0.9250 0.3158 -0.2113
vn 0.1395 -0.9897 0.0323
vn -0.0019 -0.9907 -0.1360
vn -0.1434 -0.9891 0.0323
vn 0.0634 -0.9887 0.1357
vn 0.1065 -0.9906 -0.0865
vn -0.1104 -0.9901 -0.0864
vn -0.1104 -0.9901 -0.0865
vn 0.7763 -0.1179 0.6192
vn -0.7768 -0.1148 0.6192
vn 0.7789 0.6016 -0.1775
vn 0.0006 0.3330 0.9429
vn -0.4207 0.2389 -0.8752
vn -0.4210 0.2382 -0.8752
vn -0.4206 0.2391 -0.8752
vn -0.6776 0.7188 -0.1552
vn -0.7550 0.2581 0.6028
vn -0.7550 0.2586 0.6026
vn -0.7550 0.2580 0.6028
vn 0.7558 0.2577 0.6020
vn 0.7558 0.2571 0.6022
vn 0.7558 0.2570 0.6023
vn 0.4221 0.2376 -0.8749
vn 0.4218 0.2383 -0.8748
vn 0.4218 0.2384 -0.8748
vn -0.9445 0.2478 -0.2158
vn -0.9445 0.2476 -0.2157
vn 0.0008 0.2623 0.9650
vn 0.0006 0.2631 0.9648
vn 0.0009 0.2620 0.9651
vn 0.9449 0.2463 -0.2155
vn 0.9449 0.2464 -0.2155
vn 0.9449 0.2465 -0.2156
vn 0.2971 0.9257 0.2343
vn 0.2971 0.9256 0.2343
vn 0.0026 0.7397 0.6729
vn 0.6811 0.7156 -0.1549
vn -0.3059 0.7044 -0.6405
vn -0.5297 0.7343 0.4245
vn 0.5339 0.7318 0.4237
vn 0.3106 0.7030 -0.6398
vn -0.0949 0.9743 -0.2042
vn 0.1785 0.9142 -0.3638
vn -0.3784 0.9216 -0.0871
vn -0.3783 0.9216 -0.0871
vn 0.0033 0.9291 0.3697
vn 0.3842 0.9191 -0.0870
vn -0.1721 0.9153 -0.3641
vn -0.2909 0.9275 0.2346
vn -0.1738 0.9746 0.1414
vn 0.1806 0.9734 0.1412
vn 0.1018 0.9736 -0.2041
vn -0.2176 0.9747 -0.0505
vn 0.0035 0.9740 0.2266
vn 0.2243 0.9732 -0.0504
vn -0.4210 0.2380 -0.8753
vn -0.7550 0.2588 0.6025
vn 0.7558 0.2578 0.6020
vn 0.4222 0.2373 -0.8749
vn -0.9446 0.2476 -0.2157
vn 0.0005 0.2633 0.9647
vn 0.9450 0.2462 -0.2155
vn 0.1784 0.9142 -0.3638
vn 0.3842 0.9191 -0.0869
usemtl White.001
s 1
f 2//1 3//1 1//1
f 4//2 5//2 3//2
f 6//3 7//3 5//3
f 7//4 10//4 9//4
f 9//5 12//5 11//6
f 6//7 18//7 8//7
f 11//8 14//8 13//8
f 13//9 2//9 1//9
f 9//10 11//10 3//10
f 21//11 27//11 28//11
f 14//12 20//12 21//12
f 8//13 19//13 10//13
f 2//14 21//14 16//14
f 4//15 17//15 6//15
f 12//16 19//16 20//16
f 2//17 15//18 4//18
f 28//10 30//10 23//10
f 18//19 26//19 19//19
f 15//20 24//20 17//20
f 16//21 28//21 23//21
f 20//22 26//22 27//22
f 17//23 25//23 18//24
f 16//25 22//25 15//25
f 32//26 40//26 33//26
f 26//10 34//10 27//10
f 25//10 31//10 32//10
f 22//27 30//10 29//27
f 27//10 35//10 28//10
f 25//10 33//10 26//10
f 24//10 29//27 31//10
f 36//28 44//28 43//28
f 29//29 38//29 31//29
f 30//30 42//30 37//30
f 34//31 40//31 41//31
f 31//32 39//32 32//32
f 30//33 36//34 29//33
f 35//35 41//35 42//35
f 41//36 49//36 42//36
f 40//37 46//37 47//37
f 38//38 43//38 45//38
f 42//39 44//39 37//39
f 40//40 48//40 41//40
f 39//41 45//42 46//42
f 2//1 4//1 3//1
f 4//2 6//2 5//2
f 6//3 8//43 7//3
f 7//4 8//4 10//4
f 9//5 10//44 12//5
f 6//7 17//7 18//7
f 11//8 12//8 14//8
f 13//9 14//9 2//9
f 13//10 1//10 11//10
f 1//10 3//10 11//10
f 3//10 5//10 7//10
f 7//10 9//10 3//10
f 21//11 20//11 27//11
f 14//12 12//12 20//12
f 8//13 18//13 19//13
f 2//14 14//14 21//14
f 4//15 15//45 17//15
f 12//16 10//16 19//16
f 2//17 16//17 15//18
f 28//10 35//10 30//10
f 18//19 25//19 26//19
f 15//20 22//20 24//20
f 16//21 21//21 28//21
f 20//22 19//22 26//22
f 17//23 24//23 25//23
f 16//25 23//25 22//25
f 32//26 39//46 40//26
f 26//10 33//10 34//10
f 25//10 24//10 31//10
f 22//27 23//10 30//10
f 27//10 34//10 35//10
f 25//10 32//10 33//10
f 24//10 22//27 29//27
f 36//28 37//28 44//28
f 29//29 36//29 38//29
f 30//30 35//30 42//30
f 34//31 33//31 40//31
f 31//32 38//32 39//32
f 30//33 37//34 36//34
f 35//35 34//35 41//35
f 41//36 48//36 49//36
f 40//37 39//37 46//37
f 38//38 36//38 43//38
f 42//39 49//39 44//39
f 40//40 47//40 48//40
f 39//41 38//41 45//42
usemtl LightRed.001
f 44//47 56//48 51//49
f 56//50 62//50 63//50
f 48//51 54//52 55//53
f 45//54 53//55 46//56
f 44//57 50//58 43//59
f 49//60 55//61 56//60
f 47//62 53//63 54//64
f 43//65 52//66 45//67
f 59//68 67//69 60//69
f 54//70 60//70 61//70
f 50//71 59//71 52//71
f 51//72 63//72 58//72
f 55//73 61//73 62//73
f 52//74 60//74 53//74
f 51//75 57//75 50//75
f 65//76 70//76 71//76
f 58//77 64//77 57//77
f 63//78 69//78 70//79
f 61//80 67//80 68//80
f 57//81 66//81 59//81
f 58//82 70//82 65//82
f 62//83 68//83 69//83
f 69//84 68//84 71//84
f 67//85 66//85 71//85
f 64//86 65//86 71//86
f 70//87 69//87 71//87
f 68//88 67//88 71//88
f 66//89 64//89 71//89
f 44//47 49//90 56//48
f 56//50 55//50 62//50
f 48//51 47//91 54//52
f 45//54 52//92 53//55
f 44//57 51//93 50//58
f 49//60 48//94 55//61
f 47//62 46//95 53//63
f 43//65 50//96 52//66
f 59//68 66//68 67//69
f 54//70 53//70 60//70
f 50//71 57//71 59//71
f 51//72 56//72 63//72
f 55//73 54//73 61//73
f 52//74 59//74 60//74
f 51//75 58//75 57//75
f 58//77 65//97 64//77
f 63//78 62//78 69//78
f 61//80 60//80 67//80
f 57//81 64//98 66//81
f 58//82 63//82 70//82
f 62//83 61//83 68//83
