# Blender v3.3.14 OBJ File: 'PooreRobert_one.blend'
# www.blender.org
mtllib Platform_CenterMiddle.mtl
o Platform_CenterMiddle.001
v -0.506900 0.999998 -1.562632
v -0.506900 0.999998 1.562632
v -0.999999 0.999998 1.562632
v -0.999999 0.999998 -1.562632
v -0.506900 -0.999998 -1.562632
v -0.506900 -0.999998 1.562632
v -0.999999 -0.999998 1.562632
v -0.999999 -0.999998 -1.562632
v 0.476907 0.999998 -1.562632
v 0.476907 0.999998 1.562632
v 0.999999 0.999998 1.562632
v -0.014996 0.999998 1.562632
v 0.999999 0.999998 -1.562632
v -0.014996 0.999998 -1.562632
v 0.476907 -0.999998 -1.562632
v 0.476907 -0.999998 1.562632
v 0.999999 -0.999998 1.562632
v -0.014996 -0.999998 1.562632
v 0.999999 -0.999998 -1.562632
v -0.014996 -0.999998 -1.562632
vn 0.0000 0.0000 -1.0000
vn 0.0000 0.0000 1.0000
vn 1.0000 0.0000 0.0000
vn 0.0000 1.0000 0.0000
vn 0.0000 -1.0000 0.0000
vn -1.0000 0.0000 0.0000
usemtl LightBrown.006
s 1
f 1//1 8//1 4//1
f 14//1 5//1 1//1
f 3//2 6//2 2//2
f 2//2 18//2 12//2
f 19//1 9//1 13//1
f 15//1 14//1 9//1
f 16//2 11//2 10//2
f 18//2 10//2 12//2
f 19//3 11//3 17//3
f 10//4 14//4 12//4
f 20//5 16//5 18//5
f 3//6 8//6 7//6
f 1//4 3//4 2//4
f 1//4 12//4 14//4
f 10//4 13//4 9//4
f 15//5 17//5 16//5
f 18//5 5//5 20//5
f 6//5 8//5 5//5
f 1//1 5//1 8//1
f 14//1 20//1 5//1
f 3//2 7//2 6//2
f 2//2 6//2 18//2
f 19//1 15//1 9//1
f 15//1 20//1 14//1
f 16//2 17//2 11//2
f 18//2 16//2 10//2
f 19//3 13//3 11//3
f 10//4 9//4 14//4
f 20//5 15//5 16//5
f 3//6 4//6 8//6
f 1//4 4//4 3//4
f 1//4 2//4 12//4
f 10//4 11//4 13//4
f 15//5 19//5 17//5
f 18//5 6//5 5//5
f 6//5 7//5 8//5
