# Blender v3.3.14 OBJ File: 'PooreRobert_one.blend'
# www.blender.org
mtllib Spikes_Platform.mtl
o Spikes_Platform
v -0.851209 -0.004703 0.851209
v -0.851209 0.165044 0.851209
v -0.851209 -0.004703 -0.851209
v -0.851209 0.165044 -0.851209
v 0.851209 -0.004703 0.851209
v 0.851209 0.165044 0.851209
v 0.851209 -0.004703 -0.851209
v 0.851209 0.165044 -0.851209
v 0.668807 -0.004703 -0.851209
v 0.364804 -0.004703 -0.851209
v 0.121601 -0.004703 -0.851209
v -0.121601 -0.004703 -0.851209
v -0.364804 -0.004703 -0.851209
v -0.668807 -0.004703 -0.851209
v -0.668807 0.228529 -0.851209
v -0.364804 0.228529 -0.851209
v -0.121601 0.228529 -0.851209
v 0.121601 0.228529 -0.851209
v 0.364804 0.228529 -0.851209
v 0.668807 0.228529 -0.851209
v -0.668807 -0.004703 0.851209
v -0.364804 -0.004703 0.851209
v -0.121601 -0.004703 0.851209
v 0.121601 -0.004703 0.851209
v 0.364804 -0.004703 0.851209
v 0.668807 -0.004703 0.851209
v 0.668807 0.228529 0.851209
v 0.364804 0.228529 0.851209
v 0.121601 0.228529 0.851209
v -0.121601 0.228529 0.851209
v -0.364804 0.228529 0.851209
v -0.668807 0.228529 0.851209
v -0.851209 -0.004703 -0.668807
v -0.851209 -0.004703 -0.364804
v -0.851209 -0.004703 -0.121601
v -0.851209 -0.004703 0.121601
v -0.851209 -0.004703 0.364804
v -0.851209 -0.004703 0.668807
v -0.851209 0.228529 0.668807
v -0.851209 0.228529 0.364804
v -0.851209 0.228529 0.121601
v -0.851209 0.228529 -0.121601
v -0.851209 0.228529 -0.364804
v -0.851209 0.228529 -0.668807
v 0.851209 -0.004703 0.668807
v 0.851209 -0.004703 0.364804
v 0.851209 -0.004703 0.121601
v 0.851209 -0.004703 -0.121601
v 0.851209 -0.004703 -0.364804
v 0.851209 -0.004703 -0.668807
v 0.851209 0.228529 -0.668807
v 0.851209 0.228529 -0.364804
v 0.851209 0.228529 -0.121601
v 0.851209 0.228529 0.121601
v 0.851209 0.228529 0.364804
v 0.851209 0.228529 0.668807
v 0.714286 0.300305 -0.714286
v 0.714286 0.300305 -0.428571
v 0.714286 0.300305 -0.142857
v 0.714286 0.300305 0.142857
v 0.714286 0.300305 0.428571
v 0.714286 0.300305 0.714286
v 0.428571 0.300305 -0.714286
v 0.428571 0.300305 -0.428571
v 0.428571 0.300305 -0.142857
v 0.428571 0.300305 0.142857
v 0.428571 0.300305 0.428571
v 0.428571 0.300305 0.714286
v 0.142857 0.300305 -0.714286
v 0.142857 0.300305 -0.428571
v 0.142857 0.300305 -0.142857
v 0.142857 0.300305 0.142857
v 0.142857 0.300305 0.428571
v 0.142857 0.300305 0.714286
v -0.142857 0.300305 -0.714286
v -0.142857 0.300305 -0.428571
v -0.142857 0.300305 -0.142857
v -0.142857 0.300305 0.142857
v -0.142857 0.300305 0.428571
v -0.142857 0.300305 0.714286
v -0.428571 0.300305 -0.714286
v -0.428571 0.300305 -0.428571
v -0.428571 0.300305 -0.142857
v -0.428571 0.300305 0.142857
v -0.428571 0.300305 0.428571
v -0.428571 0.300305 0.714286
v -0.714286 0.300305 -0.714286
v -0.714286 0.300305 -0.428571
v -0.714286 0.300305 -0.142857
v -0.714286 0.300305 0.142857
v -0.714286 0.300305 0.428571
v -0.714286 0.300305 0.714286
v -0.714286 -0.004703 -0.714286
v -0.714286 -0.004703 -0.428571
v -0.714286 -0.004703 -0.142857
v -0.714286 -0.004703 0.142857
v -0.714286 -0.004703 0.428571
v -0.714286 -0.004703 0.714286
v -0.428571 -0.004703 -0.714286
v -0.428571 -0.004703 -0.428571
v -0.428571 -0.004703 -0.142857
v -0.428571 -0.004703 0.142857
v -0.428571 -0.004703 0.428571
v -0.428571 -0.004703 0.714286
v -0.142857 -0.004703 -0.714286
v -0.142857 -0.004703 -0.428571
v -0.142857 -0.004703 -0.142857
v -0.142857 -0.004703 0.142857
v -0.142857 -0.004703 0.428571
v -0.142857 -0.004703 0.714286
v 0.142857 -0.004703 -0.714286
v 0.142857 -0.004703 -0.428571
v 0.142857 -0.004703 -0.142857
v 0.142857 -0.004703 0.142857
v 0.142857 -0.004703 0.428571
v 0.142857 -0.004703 0.714286
v 0.428571 -0.004703 -0.714286
v 0.428571 -0.004703 -0.428571
v 0.428571 -0.004703 -0.142857
v 0.428571 -0.004703 0.142857
v 0.428571 -0.004703 0.428571
v 0.428571 -0.004703 0.714286
v 0.714286 -0.004703 -0.714286
v 0.714286 -0.004703 -0.428571
v 0.714286 -0.004703 -0.142857
v 0.714286 -0.004703 0.142857
v 0.714286 -0.004703 0.428571
v 0.714286 -0.004703 0.714286
v -0.514286 0.300305 0.514286
v -0.514286 0.300305 0.628571
v -0.628571 0.300305 0.514286
v -0.628571 0.300305 0.628571
v -0.228571 0.300305 0.514286
v -0.228571 0.300305 0.628571
v -0.342857 0.300305 0.514286
v -0.342857 0.300305 0.628571
v 0.342857 0.300305 0.514286
v 0.342857 0.300305 0.628571
v 0.228571 0.300305 0.514286
v 0.228571 0.300305 0.628571
v 0.057143 0.300305 0.514286
v 0.057143 0.300305 0.628571
v -0.057143 0.300305 0.514286
v -0.057143 0.300305 0.628571
v 0.628571 0.300305 0.514286
v 0.628571 0.300305 0.628571
v 0.514286 0.300305 0.514286
v 0.514286 0.300305 0.628571
v 0.628571 0.300305 0.228571
v 0.628571 0.300305 0.342857
v 0.514286 0.300305 0.228571
v 0.514286 0.300305 0.342857
v 0.342857 0.300305 0.228571
v 0.342857 0.300305 0.342857
v 0.228571 0.300305 0.228571
v 0.228571 0.300305 0.342857
v 0.057143 0.300305 0.228571
v 0.057143 0.300305 0.342857
v -0.057143 0.300305 0.228571
v -0.057143 0.300305 0.342857
v -0.228571 0.300305 0.228571
v -0.228571 0.300305 0.342857
v -0.342857 0.300305 0.228571
v -0.342857 0.300305 0.342857
v -0.514286 0.300305 0.228571
v -0.514286 0.300305 0.342857
v -0.628571 0.300305 0.228571
v -0.628571 0.300305 0.342857
v -0.514286 0.300305 -0.057143
v -0.514286 0.300305 0.057143
v -0.628571 0.300305 -0.057143
v -0.628571 0.300305 0.057143
v -0.228571 0.300305 -0.057143
v -0.228571 0.300305 0.057143
v -0.342857 0.300305 -0.057143
v -0.342857 0.300305 0.057143
v 0.057143 0.300305 -0.057143
v 0.057143 0.300305 0.057143
v -0.057143 0.300305 -0.057143
v -0.057143 0.300305 0.057143
v 0.342857 0.300305 -0.057143
v 0.342857 0.300305 0.057143
v 0.228571 0.300305 -0.057143
v 0.228571 0.300305 0.057143
v 0.628571 0.300305 -0.057143
v 0.628571 0.300305 0.057143
v 0.514286 0.300305 -0.057143
v 0.514286 0.300305 0.057143
v 0.628571 0.300305 -0.342857
v 0.628571 0.300305 -0.228571
v 0.514286 0.300305 -0.342857
v 0.514286 0.300305 -0.228571
v 0.342857 0.300305 -0.342857
v 0.342857 0.300305 -0.228571
v 0.228571 0.300305 -0.342857
v 0.228571 0.300305 -0.228571
v 0.057143 0.300305 -0.342857
v 0.057143 0.300305 -0.228571
v -0.057143 0.300305 -0.342857
v -0.057143 0.300305 -0.228571
v -0.228571 0.300305 -0.342857
v -0.228571 0.300305 -0.228571
v -0.342857 0.300305 -0.342857
v -0.342857 0.300305 -0.228571
v -0.514286 0.300305 -0.342857
v -0.514286 0.300305 -0.228571
v -0.628571 0.300305 -0.342857
v -0.628571 0.300305 -0.228571
v -0.514286 0.300305 -0.628571
v -0.514286 0.300305 -0.514286
v -0.628571 0.300305 -0.628571
v -0.628571 0.300305 -0.514286
v -0.228571 0.300305 -0.628571
v -0.228571 0.300305 -0.514286
v -0.342857 0.300305 -0.628571
v -0.342857 0.300305 -0.514286
v 0.057143 0.300305 -0.628571
v 0.057143 0.300305 -0.514286
v -0.057143 0.300305 -0.628571
v -0.057143 0.300305 -0.514286
v 0.342857 0.300305 -0.628571
v 0.342857 0.300305 -0.514286
v 0.228571 0.300305 -0.628571
v 0.228571 0.300305 -0.514286
v 0.628571 0.300305 -0.628571
v 0.628571 0.300305 -0.514286
v 0.514286 0.300305 -0.628571
v 0.514286 0.300305 -0.514286
v -0.571429 1.266608 0.571429
v -0.285714 1.266608 0.571429
v 0.285714 1.266608 0.571429
v 0.000000 1.266608 0.571429
v 0.571429 1.266608 0.571429
v 0.571429 1.266608 0.285714
v 0.285714 1.266608 0.285714
v 0.000000 1.266608 0.285714
v -0.285714 1.266608 0.285714
v -0.571429 1.266608 0.285714
v -0.571429 1.266608 0.000000
v -0.285714 1.266608 0.000000
v 0.000000 1.266608 0.000000
v 0.285714 1.266608 0.000000
v 0.571429 1.266608 0.000000
v 0.571429 1.266608 -0.285714
v 0.285714 1.266608 -0.285714
v 0.000000 1.266608 -0.285714
v -0.285714 1.266608 -0.285714
v -0.571429 1.266608 -0.285714
v -0.571429 1.266608 -0.571429
v -0.285714 1.266608 -0.571429
v 0.000000 1.266608 -0.571429
v 0.285714 1.266608 -0.571429
v 0.571429 1.266608 -0.571429
vn -0.9983 0.0590 0.0000
vn 0.0000 0.0590 -0.9983
vn 0.9983 0.0590 0.0000
vn 0.0000 0.0590 0.9983
vn -1.0000 0.0000 0.0000
vn 0.0000 0.0000 -1.0000
vn 1.0000 0.0000 0.0000
vn -0.0000 0.0000 1.0000
vn 0.0000 -1.0000 0.0000
vn -0.4049 0.8198 0.4049
vn -0.2813 0.8083 0.5172
vn 0.4049 0.8198 0.4049
vn 0.5172 0.8083 0.2813
vn 0.0000 0.8857 0.4643
vn 0.0000 0.8857 -0.4643
vn 0.0000 1.0000 0.0000
vn 0.4049 0.8198 -0.4049
vn 0.5172 0.8083 -0.2813
vn 0.4643 0.8857 0.0000
vn -0.4049 0.8198 -0.4049
vn -0.2813 0.8083 -0.5172
vn -0.4643 0.8857 0.0000
vn -0.5172 0.8083 0.2813
vn 0.2813 0.8083 0.5172
vn 0.2813 0.8083 -0.5172
vn -0.5172 0.8083 -0.2813
usemtl Grey
s 1
f 207//1 208//1 248//1
f 153//2 155//2 235//2
f 206//3 205//3 248//3
f 155//1 156//1 235//1
f 154//3 153//3 235//3
f 180//4 178//4 241//4
f 177//2 179//2 241//2
f 179//1 180//1 241//1
f 178//3 177//3 241//3
f 204//4 202//4 247//4
f 201//2 203//2 247//2
f 152//4 150//4 234//4
f 203//1 204//1 247//1
f 149//2 151//2 234//2
f 202//3 201//3 247//3
f 151//1 152//1 234//1
f 228//4 226//4 253//4
f 150//3 149//3 234//3
f 225//2 227//2 253//2
f 176//4 174//4 240//4
f 227//1 228//1 253//1
f 173//2 175//2 240//2
f 226//3 225//3 253//3
f 175//1 176//1 240//1
f 174//3 173//3 240//3
f 156//4 154//4 235//4
f 205//2 207//2 248//2
f 130//3 129//3 229//3
f 208//4 206//4 248//4
f 131//1 132//1 229//1
f 182//3 181//3 242//3
f 129//2 131//2 229//2
f 183//1 184//1 242//1
f 132//4 130//4 229//4
f 181//2 183//2 242//2
f 184//4 182//4 242//4
f 158//3 157//3 236//3
f 159//1 160//1 236//1
f 210//3 209//3 249//3
f 157//2 159//2 236//2
f 211//1 212//1 249//1
f 160//4 158//4 236//4
f 209//2 211//2 249//2
f 134//3 133//3 230//3
f 212//4 210//4 249//4
f 135//1 136//1 230//1
f 186//3 185//3 243//3
f 133//2 135//2 230//2
f 187//1 188//1 243//1
f 136//4 134//4 230//4
f 185//2 187//2 243//2
f 188//4 186//4 243//4
f 162//3 161//3 237//3
f 163//1 164//1 237//1
f 214//3 213//3 250//3
f 161//2 163//2 237//2
f 215//1 216//1 250//1
f 164//4 162//4 237//4
f 213//2 215//2 250//2
f 138//3 137//3 231//3
f 216//4 214//4 250//4
f 139//1 140//1 231//1
f 190//3 189//3 244//3
f 137//2 139//2 231//2
f 191//1 192//1 244//1
f 140//4 138//4 231//4
f 189//2 191//2 244//2
f 192//4 190//4 244//4
f 166//3 165//3 238//3
f 167//1 168//1 238//1
f 218//3 217//3 251//3
f 165//2 167//2 238//2
f 219//1 220//1 251//1
f 168//4 166//4 238//4
f 217//2 219//2 251//2
f 142//3 141//3 232//3
f 220//4 218//4 251//4
f 143//1 144//1 232//1
f 194//3 193//3 245//3
f 141//2 143//2 232//2
f 195//1 196//1 245//1
f 144//4 142//4 232//4
f 193//2 195//2 245//2
f 196//4 194//4 245//4
f 170//3 169//3 239//3
f 171//1 172//1 239//1
f 222//3 221//3 252//3
f 169//2 171//2 239//2
f 223//1 224//1 252//1
f 172//4 170//4 239//4
f 221//2 223//2 252//2
f 146//3 145//3 233//3
f 224//4 222//4 252//4
f 147//1 148//1 233//1
f 198//3 197//3 246//3
f 145//2 147//2 233//2
f 199//1 200//1 246//1
f 148//4 146//4 233//4
f 197//2 199//2 246//2
f 200//4 198//4 246//4
usemtl DarkGrey
f 33//5 4//5 3//5
f 9//6 8//6 7//6
f 45//7 6//7 5//7
f 21//8 2//8 1//8
f 128//9 5//9 26//9
f 92//10 2//10 32//11
f 62//12 6//12 56//13
f 68//14 27//14 62//14
f 74//14 28//14 68//14
f 80//14 29//14 74//14
f 80//14 31//14 30//14
f 86//14 32//14 31//14
f 98//9 1//9 38//9
f 104//9 21//9 98//9
f 110//9 22//9 104//9
f 116//9 23//9 110//9
f 116//9 25//9 24//9
f 122//9 26//9 25//9
f 6//8 26//8 5//8
f 27//8 25//8 26//8
f 28//8 24//8 25//8
f 29//8 23//8 24//8
f 30//8 22//8 23//8
f 31//8 21//8 22//8
f 4//6 14//6 3//6
f 15//6 13//6 14//6
f 16//6 12//6 13//6
f 17//6 11//6 12//6
f 18//6 10//6 11//6
f 19//6 9//6 10//6
f 9//9 117//9 10//9
f 123//9 118//9 117//9
f 124//9 119//9 118//9
f 125//9 120//9 119//9
f 126//9 121//9 120//9
f 127//9 122//9 121//9
f 10//9 111//9 11//9
f 117//9 112//9 111//9
f 118//9 113//9 112//9
f 119//9 114//9 113//9
f 120//9 115//9 114//9
f 121//9 116//9 115//9
f 12//9 111//9 105//9
f 111//9 106//9 105//9
f 112//9 107//9 106//9
f 113//9 108//9 107//9
f 114//9 109//9 108//9
f 115//9 110//9 109//9
f 13//9 105//9 99//9
f 105//9 100//9 99//9
f 106//9 101//9 100//9
f 107//9 102//9 101//9
f 108//9 103//9 102//9
f 109//9 104//9 103//9
f 14//9 99//9 93//9
f 99//9 94//9 93//9
f 100//9 95//9 94//9
f 101//9 96//9 95//9
f 102//9 97//9 96//9
f 103//9 98//9 97//9
f 3//9 93//9 33//9
f 33//9 94//9 34//9
f 34//9 95//9 35//9
f 95//9 36//9 35//9
f 96//9 37//9 36//9
f 97//9 38//9 37//9
f 15//15 81//15 16//15
f 82//16 209//16 210//16
f 89//16 207//16 88//16
f 83//16 170//16 84//16
f 90//16 168//16 167//16
f 85//16 130//16 86//16
f 16//15 75//15 17//15
f 76//16 216//16 82//16
f 82//16 201//16 76//16
f 78//16 176//16 84//16
f 84//16 161//16 78//16
f 85//16 136//16 135//16
f 17//15 69//15 18//15
f 75//16 217//16 69//16
f 70//16 198//16 71//16
f 77//16 177//16 71//16
f 72//16 158//16 73//16
f 79//16 141//16 73//16
f 19//15 69//15 63//15
f 64//16 221//16 222//16
f 65//16 196//16 71//16
f 71//16 181//16 65//16
f 73//16 155//16 72//16
f 74//16 138//16 140//16
f 20//15 63//15 57//15
f 64//16 227//16 63//16
f 64//16 189//16 58//16
f 59//16 186//16 60//16
f 66//16 149//16 60//16
f 61//16 146//16 62//16
f 8//17 57//17 51//18
f 51//19 58//19 52//19
f 52//19 59//19 53//19
f 59//19 54//19 53//19
f 60//19 55//19 54//19
f 61//19 56//19 55//19
f 4//20 87//20 15//21
f 44//22 88//22 87//22
f 43//22 89//22 88//22
f 42//22 90//22 89//22
f 90//22 40//22 91//22
f 91//22 39//22 92//22
f 7//9 123//9 9//9
f 50//9 124//9 123//9
f 49//9 125//9 124//9
f 48//9 126//9 125//9
f 126//9 46//9 127//9
f 127//9 45//9 128//9
f 8//7 50//7 7//7
f 51//7 49//7 50//7
f 52//7 48//7 49//7
f 53//7 47//7 48//7
f 54//7 46//7 47//7
f 55//7 45//7 46//7
f 2//5 38//5 1//5
f 39//5 37//5 38//5
f 40//5 36//5 37//5
f 41//5 35//5 36//5
f 42//5 34//5 35//5
f 43//5 33//5 34//5
f 86//16 132//16 92//16
f 91//16 132//16 131//16
f 85//16 131//16 129//16
f 79//16 134//16 80//16
f 85//16 133//16 79//16
f 80//16 136//16 86//16
f 73//16 140//16 139//16
f 67//16 138//16 68//16
f 73//16 137//16 67//16
f 79//16 144//16 143//16
f 73//16 142//16 74//16
f 74//16 144//16 80//16
f 68//16 146//16 148//16
f 67//16 145//16 61//16
f 67//16 148//16 147//16
f 67//16 151//16 66//16
f 60//16 150//16 61//16
f 67//16 150//16 152//16
f 66//16 154//16 67//16
f 72//16 153//16 66//16
f 67//16 156//16 73//16
f 73//16 160//16 79//16
f 78//16 157//16 72//16
f 79//16 159//16 78//16
f 79//16 164//16 85//16
f 85//16 163//16 84//16
f 78//16 162//16 79//16
f 84//16 167//16 165//16
f 84//16 166//16 85//16
f 85//16 168//16 91//16
f 84//16 172//16 90//16
f 90//16 171//16 89//16
f 83//16 171//16 169//16
f 84//16 175//16 83//16
f 77//16 174//16 78//16
f 83//16 173//16 77//16
f 78//16 179//16 77//16
f 71//16 178//16 72//16
f 72//16 180//16 78//16
f 66//16 184//16 72//16
f 72//16 183//16 71//16
f 65//16 182//16 66//16
f 66//16 186//16 188//16
f 65//16 185//16 59//16
f 66//16 187//16 65//16
f 65//16 191//16 64//16
f 59//16 189//16 190//16
f 65//16 190//16 192//16
f 71//16 195//16 70//16
f 64//16 194//16 65//16
f 70//16 193//16 64//16
f 71//16 200//16 77//16
f 76//16 197//16 70//16
f 77//16 199//16 76//16
f 77//16 204//16 83//16
f 83//16 203//16 82//16
f 76//16 202//16 77//16
f 82//16 207//16 205//16
f 82//16 206//16 83//16
f 83//16 208//16 89//16
f 82//16 212//16 88//16
f 88//16 211//16 87//16
f 81//16 211//16 209//16
f 82//16 215//16 81//16
f 76//16 213//16 214//16
f 75//16 215//16 213//16
f 76//16 219//16 75//16
f 70//16 217//16 218//16
f 70//16 220//16 76//16
f 69//16 221//16 63//16
f 64//16 224//16 70//16
f 70//16 223//16 69//16
f 58//16 225//16 226//16
f 64//16 226//16 228//16
f 63//16 225//16 57//16
f 33//5 44//5 4//5
f 9//6 20//6 8//6
f 45//7 56//7 6//7
f 21//8 32//8 2//8
f 128//9 45//9 5//9
f 92//10 39//23 2//10
f 62//12 27//24 6//12
f 68//14 28//14 27//14
f 74//14 29//14 28//14
f 80//14 30//14 29//14
f 80//14 86//14 31//14
f 86//14 92//14 32//14
f 98//9 21//9 1//9
f 104//9 22//9 21//9
f 110//9 23//9 22//9
f 116//9 24//9 23//9
f 116//9 122//9 25//9
f 122//9 128//9 26//9
f 6//8 27//8 26//8
f 27//8 28//8 25//8
f 28//8 29//8 24//8
f 29//8 30//8 23//8
f 30//8 31//8 22//8
f 31//8 32//8 21//8
f 4//6 15//6 14//6
f 15//6 16//6 13//6
f 16//6 17//6 12//6
f 17//6 18//6 11//6
f 18//6 19//6 10//6
f 19//6 20//6 9//6
f 9//9 123//9 117//9
f 123//9 124//9 118//9
f 124//9 125//9 119//9
f 125//9 126//9 120//9
f 126//9 127//9 121//9
f 127//9 128//9 122//9
f 10//9 117//9 111//9
f 117//9 118//9 112//9
f 118//9 119//9 113//9
f 119//9 120//9 114//9
f 120//9 121//9 115//9
f 121//9 122//9 116//9
f 12//9 11//9 111//9
f 111//9 112//9 106//9
f 112//9 113//9 107//9
f 113//9 114//9 108//9
f 114//9 115//9 109//9
f 115//9 116//9 110//9
f 13//9 12//9 105//9
f 105//9 106//9 100//9
f 106//9 107//9 101//9
f 107//9 108//9 102//9
f 108//9 109//9 103//9
f 109//9 110//9 104//9
f 14//9 13//9 99//9
f 99//9 100//9 94//9
f 100//9 101//9 95//9
f 101//9 102//9 96//9
f 102//9 103//9 97//9
f 103//9 104//9 98//9
f 3//9 14//9 93//9
f 33//9 93//9 94//9
f 34//9 94//9 95//9
f 95//9 96//9 36//9
f 96//9 97//9 37//9
f 97//9 98//9 38//9
f 15//15 87//15 81//15
f 82//16 81//16 209//16
f 89//16 208//16 207//16
f 83//16 169//16 170//16
f 90//16 91//16 168//16
f 85//16 129//16 130//16
f 16//15 81//15 75//15
f 76//16 214//16 216//16
f 82//16 203//16 201//16
f 78//16 174//16 176//16
f 84//16 163//16 161//16
f 85//16 86//16 136//16
f 17//15 75//15 69//15
f 75//16 219//16 217//16
f 70//16 197//16 198//16
f 77//16 179//16 177//16
f 72//16 157//16 158//16
f 79//16 143//16 141//16
f 19//15 18//15 69//15
f 64//16 63//16 221//16
f 65//16 194//16 196//16
f 71//16 183//16 181//16
f 73//16 156//16 155//16
f 74//16 68//16 138//16
f 20//15 19//15 63//15
f 64//16 228//16 227//16
f 64//16 191//16 189//16
f 59//16 185//16 186//16
f 66//16 151//16 149//16
f 61//16 145//16 146//16
f 8//17 20//25 57//17
f 51//19 57//19 58//19
f 52//19 58//19 59//19
f 59//19 60//19 54//19
f 60//19 61//19 55//19
f 61//19 62//19 56//19
f 4//20 44//26 87//20
f 44//22 43//22 88//22
f 43//22 42//22 89//22
f 42//22 41//22 90//22
f 90//22 41//22 40//22
f 91//22 40//22 39//22
f 7//9 50//9 123//9
f 50//9 49//9 124//9
f 49//9 48//9 125//9
f 48//9 47//9 126//9
f 126//9 47//9 46//9
f 127//9 46//9 45//9
f 8//7 51//7 50//7
f 51//7 52//7 49//7
f 52//7 53//7 48//7
f 53//7 54//7 47//7
f 54//7 55//7 46//7
f 55//7 56//7 45//7
f 2//5 39//5 38//5
f 39//5 40//5 37//5
f 40//5 41//5 36//5
f 41//5 42//5 35//5
f 42//5 43//5 34//5
f 43//5 44//5 33//5
f 86//16 130//16 132//16
f 91//16 92//16 132//16
f 85//16 91//16 131//16
f 79//16 133//16 134//16
f 85//16 135//16 133//16
f 80//16 134//16 136//16
f 73//16 74//16 140//16
f 67//16 137//16 138//16
f 73//16 139//16 137//16
f 79//16 80//16 144//16
f 73//16 141//16 142//16
f 74//16 142//16 144//16
f 68//16 62//16 146//16
f 67//16 147//16 145//16
f 67//16 68//16 148//16
f 67//16 152//16 151//16
f 60//16 149//16 150//16
f 67//16 61//16 150//16
f 66//16 153//16 154//16
f 72//16 155//16 153//16
f 67//16 154//16 156//16
f 73//16 158//16 160//16
f 78//16 159//16 157//16
f 79//16 160//16 159//16
f 79//16 162//16 164//16
f 85//16 164//16 163//16
f 78//16 161//16 162//16
f 84//16 90//16 167//16
f 84//16 165//16 166//16
f 85//16 166//16 168//16
f 84//16 170//16 172//16
f 90//16 172//16 171//16
f 83//16 89//16 171//16
f 84//16 176//16 175//16
f 77//16 173//16 174//16
f 83//16 175//16 173//16
f 78//16 180//16 179//16
f 71//16 177//16 178//16
f 72//16 178//16 180//16
f 66//16 182//16 184//16
f 72//16 184//16 183//16
f 65//16 181//16 182//16
f 66//16 60//16 186//16
f 65//16 187//16 185//16
f 66//16 188//16 187//16
f 65//16 192//16 191//16
f 59//16 58//16 189//16
f 65//16 59//16 190//16
f 71//16 196//16 195//16
f 64//16 193//16 194//16
f 70//16 195//16 193//16
f 71//16 198//16 200//16
f 76//16 199//16 197//16
f 77//16 200//16 199//16
f 77//16 202//16 204//16
f 83//16 204//16 203//16
f 76//16 201//16 202//16
f 82//16 88//16 207//16
f 82//16 205//16 206//16
f 83//16 206//16 208//16
f 82//16 210//16 212//16
f 88//16 212//16 211//16
f 81//16 87//16 211//16
f 82//16 216//16 215//16
f 76//16 75//16 213//16
f 75//16 81//16 215//16
f 76//16 220//16 219//16
f 70//16 69//16 217//16
f 70//16 218//16 220//16
f 69//16 223//16 221//16
f 64//16 222//16 224//16
f 70//16 224//16 223//16
f 58//16 57//16 225//16
f 64//16 58//16 226//16
f 63//16 227//16 225//16
