# Blender v3.3.14 OBJ File: 'PooreRobert_one.blend'
# www.blender.org
mtllib Star.mtl
o Star
v 0.000000 -0.272059 -0.096780
v 0.258743 -0.084071 -0.096780
v 0.159912 0.220100 -0.096780
v -0.159912 0.220100 -0.096780
v -0.258743 -0.084071 -0.096780
v -0.425810 0.104408 -0.023483
v -0.405857 0.165817 -0.023483
v -0.032285 0.437233 -0.023483
v 0.032284 0.437233 -0.023483
v 0.405856 0.165817 -0.023483
v 0.425809 0.104408 -0.023483
v 0.283118 -0.334752 -0.023483
v 0.230880 -0.372705 -0.023483
v -0.230880 -0.372705 -0.023483
v -0.283118 -0.334752 -0.023483
v 0.000000 0.000001 -0.168345
v 0.000000 -0.272059 0.096780
v 0.258743 -0.084071 0.096780
v 0.159912 0.220100 0.096780
v -0.159912 0.220100 0.096780
v -0.258743 -0.084071 0.096780
v -0.425810 0.104408 0.023483
v -0.405857 0.165817 0.023483
v -0.032285 0.437233 0.023483
v 0.032285 0.437233 0.023483
v 0.405856 0.165817 0.023483
v 0.425809 0.104408 0.023483
v 0.283118 -0.334752 0.023483
v 0.230880 -0.372705 0.023483
v -0.230880 -0.372705 0.023483
v -0.283118 -0.334752 0.023483
v 0.000000 0.000001 0.168345
v 0.258743 -0.084071 0.000000
v 0.159912 0.220100 0.000000
v -0.258743 -0.084071 0.000000
v -0.159912 0.220100 0.000000
v 0.000000 -0.272059 0.000000
v 0.283118 -0.334752 0.000000
v 0.230880 -0.372705 0.000000
v 0.032285 0.437233 0.000000
v -0.032285 0.437233 0.000000
v -0.283118 -0.334752 0.000000
v -0.230880 -0.372705 0.000000
v 0.405856 0.165817 0.000000
v 0.425809 0.104408 0.000000
v -0.405857 0.165817 0.000000
v -0.425810 0.104408 0.000000
vn 0.2943 0.0956 -0.9509
vn 0.2941 0.0956 -0.9510
vn 0.1818 -0.2504 -0.9509
vn 0.1880 -0.2588 -0.9475
vn -0.0000 0.3095 -0.9509
vn 0.0000 0.3198 -0.9475
vn -0.2943 0.0956 -0.9509
vn -0.3042 0.0988 -0.9475
vn -0.1818 -0.2504 -0.9509
vn -0.1880 -0.2588 -0.9475
vn 0.3042 0.0988 -0.9475
vn 0.0000 1.0000 -0.0000
vn -0.5878 -0.8090 0.0000
vn -0.9511 0.3090 0.0000
vn -0.1818 -0.2502 -0.9510
vn 0.1818 -0.2502 -0.9510
vn -0.2941 0.0956 -0.9510
vn 0.0000 0.3092 -0.9510
vn -0.2155 0.9765 0.0000
vn 0.9511 0.3090 0.0000
vn 0.5878 -0.8090 0.0000
vn 0.3996 -0.9167 0.0000
vn 0.8621 0.5067 -0.0000
vn 0.7483 -0.6633 0.0000
vn 0.9953 0.0968 0.0000
vn -0.3996 -0.9167 0.0000
vn -0.8621 0.5067 0.0000
vn -0.7483 -0.6633 0.0000
vn -0.9953 0.0968 0.0000
vn 0.2155 0.9765 0.0000
vn 0.2943 0.0956 0.9509
vn 0.2941 0.0956 0.9510
vn 0.1880 -0.2588 0.9475
vn 0.1818 -0.2504 0.9509
vn 0.0000 0.3198 0.9475
vn -0.0000 0.3095 0.9509
vn -0.2943 0.0956 0.9509
vn -0.3042 0.0988 0.9475
vn -0.1818 -0.2504 0.9509
vn -0.1880 -0.2588 0.9475
vn 0.3042 0.0988 0.9475
vn -0.1818 -0.2502 0.9510
vn 0.1818 -0.2502 0.9510
vn -0.2941 0.0956 0.9510
vn 0.0000 0.3092 0.9510
usemtl Yellow
s 1
f 2//1 16//2 3//1
f 2//3 13//4 1//3
f 4//5 9//6 3//5
f 4//7 6//8 7//8
f 5//9 14//10 15//10
f 3//1 11//11 2//1
f 9//12 41//12 40//12
f 15//13 43//13 42//13
f 7//14 47//14 46//14
f 5//9 16//15 1//9
f 1//3 16//16 2//3
f 5//7 4//7 16//17
f 4//5 3//5 16//18
f 7//19 36//19 4//19
f 44//20 11//20 10//20
f 38//21 13//21 12//21
f 37//22 14//22 1//22
f 9//23 34//23 3//23
f 11//24 33//24 2//24
f 33//25 12//25 2//25
f 13//26 37//26 1//26
f 36//27 8//27 4//27
f 35//28 6//28 5//28
f 15//29 35//29 5//29
f 34//30 10//30 3//30
f 18//31 19//31 32//32
f 29//33 18//34 17//34
f 25//35 20//36 19//36
f 20//37 22//38 21//37
f 21//39 30//40 17//39
f 27//41 19//31 18//31
f 41//12 25//12 40//12
f 43//13 31//13 42//13
f 47//14 23//14 46//14
f 21//39 17//39 32//42
f 17//34 18//34 32//43
f 21//37 32//44 20//37
f 20//36 32//45 19//36
f 23//19 36//19 46//19
f 27//20 44//20 26//20
f 29//21 38//21 28//21
f 30//22 37//22 17//22
f 25//23 34//23 40//23
f 27//24 33//24 45//24
f 28//25 33//25 18//25
f 29//26 37//26 39//26
f 24//27 36//27 20//27
f 22//28 35//28 21//28
f 31//29 35//29 42//29
f 26//30 34//30 19//30
f 2//3 12//4 13//4
f 4//5 8//6 9//6
f 4//7 5//7 6//8
f 5//9 1//9 14//10
f 3//1 10//11 11//11
f 9//12 8//12 41//12
f 15//13 14//13 43//13
f 7//14 6//14 47//14
f 7//19 46//19 36//19
f 44//20 45//20 11//20
f 38//21 39//21 13//21
f 37//22 43//22 14//22
f 9//23 40//23 34//23
f 11//24 45//24 33//24
f 33//25 38//25 12//25
f 13//26 39//26 37//26
f 36//27 41//27 8//27
f 35//28 47//28 6//28
f 15//29 42//29 35//29
f 34//30 44//30 10//30
f 29//33 28//33 18//34
f 25//35 24//35 20//36
f 20//37 23//38 22//38
f 21//39 31//40 30//40
f 27//41 26//41 19//31
f 41//12 24//12 25//12
f 43//13 30//13 31//13
f 47//14 22//14 23//14
f 23//19 20//19 36//19
f 27//20 45//20 44//20
f 29//21 39//21 38//21
f 30//22 43//22 37//22
f 25//23 19//23 34//23
f 27//24 18//24 33//24
f 28//25 38//25 33//25
f 29//26 17//26 37//26
f 24//27 41//27 36//27
f 22//28 47//28 35//28
f 31//29 21//29 35//29
f 26//30 44//30 34//30
